<?xml version="1.0" encoding="UTF-8"?>
<!-- Generated by Pixelmator Pro 2.4.7 -->
<svg width="600" height="600" viewBox="0 0 600 600" xmlns="http://www.w3.org/2000/svg" xmlns:xlink="http://www.w3.org/1999/xlink">
    <g id="Group">
        <path id="Path" fill="#ffffff" stroke="none" d="M 217.333328 109.066681 C 216.266663 110.266663 213.600006 112 211.333328 112.666656 C 209.199997 113.466675 206.800003 115.333344 206 116.933319 C 205.333328 118.533325 203.066666 120.133331 201.066666 120.533325 C 198.666672 121.066681 196.800003 122.533325 196 124.666656 C 195.199997 126.666656 193.733337 128 192 128 C 190.53334 128 188.399994 129.466675 187.199997 131.333344 C 186 133.200012 183.600006 135.066681 181.866669 135.466675 C 180 136 177.46666 137.733337 176.133331 139.466675 C 174.800003 141.200012 172.666672 142.666656 171.600006 142.666656 C 170.53334 142.666656 168 144.399994 166.266663 146.666656 C 164.399994 148.799988 162 150.666656 160.933334 150.666656 C 159.733337 150.666656 157.333328 152.533325 155.46666 154.799988 C 153.600006 157.066681 151.46666 158.533325 150.800003 158 C 150 157.600006 147.866669 159.333344 145.733337 162 C 143.733337 164.533325 141.333328 166.666656 140.53334 166.666656 C 139.733337 166.666656 137.866669 168.133331 136.133331 169.866669 L 133.199997 172.933319 L 133.600006 287.466675 C 134 401.06665 134.133331 402.133331 137.066666 412.666687 C 144 437.600006 158 455.866669 180.666672 469.200012 C 194.133331 477.06665 199.066666 478.93335 217.600006 482.799988 C 236.399994 486.666656 248.933334 486.533325 260 482.266663 C 274 477.06665 292.399994 467.200012 314.666656 453.333313 C 315.733337 452.666687 320.533325 449.866669 325.333344 447.200012 C 330.133331 444.399994 339.733337 438.799988 346.666656 434.666687 C 353.600006 430.399994 360.666656 426.666687 362.133331 426.133331 L 365.066681 425.200012 L 364.933319 459.200012 C 364.799988 485.466675 365.200012 493.866669 366.533325 496.399994 C 368.933319 500.93335 371.866669 501.866669 374.799988 499.200012 C 376.266663 497.866669 378.133331 497.466675 379.866669 498 C 381.866669 498.533325 384 497.866669 386.799988 495.466675 C 389.066681 493.600006 391.600006 492 392.666656 492 C 393.600006 492 395.333344 490.533325 396.533325 488.666656 C 397.733337 486.799988 399.866669 485.333344 401.200012 485.333344 C 402.666656 485.333344 405.466675 483.333344 407.466675 481.06665 C 409.466675 478.666656 411.466675 476.799988 412 476.93335 C 412.533325 477.06665 414.666656 475.466675 416.666656 473.333344 C 418.799988 471.06665 421.600006 469.333313 422.799988 469.333313 C 424.133331 469.333313 426.266663 467.866669 427.733337 466 C 429.200012 464.133331 431.333344 462.666687 432.399994 462.666687 C 433.600006 462.666687 435.600006 461.200012 437.066681 459.333313 C 438.533325 457.466675 440.933319 456 442.266663 456 C 445.200012 456 452.266663 448.799988 450.933319 447.200012 C 450.399994 446.666687 450.666656 446.666687 451.466675 447.06665 C 452.399994 447.600006 454.533325 446.799988 456.399994 445.333313 C 458.266663 443.866669 460.666656 442.666687 461.733337 442.666687 C 462.666656 442.666687 464.666656 441.466675 466.133331 439.866669 C 468.533325 437.200012 468.666656 432.93335 469.066681 321.466675 C 469.466675 195.866669 469.466675 196.799988 461.866669 180.133331 C 454.799988 164.533325 437.600006 145.333344 421.733337 135.066681 C 414.133331 130.266663 399.066681 123.733337 390 121.466675 C 387.066681 120.799988 377.466675 119.733337 368.666656 119.333344 C 342 117.866669 330.666656 121.600006 291.333344 144.799988 C 259.333344 163.600006 234 178.133331 231.733337 179.066681 C 229.066666 180 229.199997 182.799988 229.333328 139.333344 C 229.333328 121.333344 228.800003 113.066681 227.600006 110.666656 C 225.600006 106.533325 220.133331 105.733337 217.333328 109.066681 Z M 224.266663 263.066681 L 224.666672 414.666687 L 221.866669 414.666687 C 218.666672 414.666687 212.666672 408.799988 210.800003 403.600006 C 209.733337 401.06665 209.333328 354.93335 209.333328 257.866669 C 209.333328 123.333344 209.46666 115.866669 211.733337 116.266663 C 213.866669 116.666656 214 124.933319 214.666672 260.799988 C 215.199997 380.266663 215.600006 405.333313 217.199997 407.06665 C 219.066666 409.466675 222 410.266663 220.666672 408 C 219.600006 406.266663 219.600006 112.399994 220.800003 110.533325 C 221.199997 109.733337 222.133331 109.600006 222.800003 110.266663 C 223.46666 110.933319 224.133331 179.600006 224.266663 263.066681 Z M 388 125.466675 C 414.666656 130.933319 443.866669 153.866669 456.533325 179.333344 C 465.466675 197.333344 465.466675 196.799988 465.066681 324.266663 C 464.799988 387.06665 464.133331 438.93335 463.600006 439.466675 C 463.066681 440.133331 462 439.866669 461.466675 438.93335 C 460.933319 438 460.399994 386.133331 460.133331 323.600006 C 459.866669 202.533325 459.600006 198.666656 453.200012 184 C 449.600006 175.733337 441.333344 165.066681 430 153.733337 C 417.733337 141.600006 401.466675 132.933319 386.666656 130.799988 C 345.333344 124.933319 339.866669 126.666656 277.333344 164 C 249.066666 180.933319 229.46666 192 228.133331 192 C 224.933334 192 226.933334 187.866669 231.733337 184.799988 C 244.53334 176.666656 320.933319 132.799988 327.066681 130 C 333.200012 127.333344 341.733337 125.066681 352 123.466675 C 356.799988 122.666656 381.066681 124 388 125.466675 Z M 204 262.799988 C 204.800003 415.866669 204.266663 408.266663 213.600006 416.266663 C 216.933334 419.200012 217.333328 420 215.733337 420.666687 C 212.800003 421.866669 207.066666 418.666687 200 411.733337 C 188.800003 400.93335 189.333328 409.06665 189.333328 261.600006 C 189.333328 151.733337 189.600006 132 191.199997 132 C 192.266663 132 193.46666 132.933319 193.866669 134.133331 C 194.266663 135.333344 194.666672 194 194.666672 264.533325 L 194.53334 392.799988 L 198 400.133331 L 201.46666 407.333313 L 200.53334 397.333313 C 199.600006 386.399994 198.933334 125.466675 199.866669 124.533325 C 203.066666 121.333344 203.333328 132.266663 204 262.799988 Z M 366.799988 132.533325 C 366 133.600006 362.399994 134.799988 358.933319 135.333344 C 348.133331 136.933319 334.799988 142.933319 310 157.600006 C 271.466675 180.266663 228 205.333344 227.333328 205.333344 C 226.933334 205.333344 226.666672 204.133331 226.666672 202.799988 C 226.666672 200.399994 256.666656 182.133331 319.333344 146.266663 C 338.133331 135.466675 350.533325 131.066681 362.533325 130.799988 C 367.333344 130.666656 368 130.933319 366.799988 132.533325 Z M 397.466675 136.133331 C 400.399994 136.933319 402.666656 138.399994 403.066681 139.866669 C 403.333344 141.200012 405.333344 142.666656 407.466675 143.200012 C 412.666656 144.399994 425.333344 150.799988 425.333344 152.266663 C 425.333344 152.799988 427.200012 154.933319 429.466675 156.933319 C 434.933319 161.733337 443.333344 174.266663 447.466675 183.600006 C 454.533325 199.466675 454.533325 200.266663 454.933319 324.933319 C 455.200012 388.533325 454.799988 441.466675 454.266663 442.399994 C 453.600006 443.200012 452.666656 444 451.866669 444 C 451.200012 444 450.666656 400.666687 450.666656 330.933319 C 450.666656 210.399994 450.399994 204 444 188 C 439.733337 177.200012 428.399994 162.666656 424.133331 162.666656 C 422.799988 162.666656 423.866669 164.399994 426.933319 167.600006 C 434.799988 175.866669 439.866669 186.533325 442.799988 200.666656 C 445.200012 212.933319 445.333344 220 445.333344 332.933319 C 445.333344 445.733337 445.200012 452.133331 443.066681 451.733337 C 440.799988 451.333313 440.666656 444.399994 440.266663 332 C 440.133331 257.600006 439.466675 209.466675 438.666656 204.266663 C 436.133331 189.600006 432.399994 181.466675 423.866669 172.933319 L 416.133331 165.200012 L 405.733337 168 C 391.866669 171.733337 389.466675 173.066681 297.333344 227.600006 C 224.800003 270.533325 228.800003 268.399994 228.133331 265.733337 C 227.600006 262.799988 227.066666 263.066681 263.333344 241.733337 C 375.866669 175.600006 398 163.200012 408.533325 160.533325 C 414.133331 159.200012 412.533325 157.866669 403.066681 156.133331 C 393.733337 154.533325 383.600006 155.466675 375.333344 158.666656 C 364.799988 162.666656 345.600006 173.466675 279.333344 212.666656 C 222.933334 246 228.666672 242.933319 228.266663 239.866669 C 228 238.399994 228 236.933319 228.266663 236.666656 C 228.53334 236.533325 236.53334 231.866669 246 226.399994 C 255.600006 220.933319 273.200012 210.533325 285.333344 203.333344 C 330.666656 176.399994 367.600006 155.866669 374.666656 153.600006 C 385.066681 150.399994 406.799988 150.399994 414.266663 153.866669 C 422.933319 157.733337 424.266663 155.466675 415.733337 151.466675 C 401.066681 144.533325 378.266663 145.600006 360.399994 154 C 350 158.799988 337.733337 165.866669 272.533325 204.133331 C 248.933334 218 229.066666 229.333344 228.133331 229.333344 C 226.399994 229.333344 226.266663 228 227.733337 225.733337 C 229.333328 223.200012 335.466675 161.200012 354.399994 151.733337 L 370.799988 143.600006 L 386.399994 142.666656 C 400.266663 142 401.333344 141.733337 395.600006 140.799988 C 392.133331 140.133331 383.733337 140 376.933319 140.266663 C 365.600006 140.799988 363.600006 141.333344 351.600006 147.066681 C 344.399994 150.399994 314.266663 167.333344 284.666656 184.666656 C 255.066666 201.866669 230 216.399994 228.800003 216.799988 C 225.866669 217.866669 226 214.266663 229.066666 211.733337 C 231.066666 210 319.866669 158.133331 340.266663 146.666656 C 349.866669 141.333344 364.133331 136 372 134.666656 C 378.533325 133.600006 389.866669 134.266663 397.466675 136.133331 Z M 184.266663 267.600006 C 184.666672 395.333313 184.666672 395.333313 187.600006 403.333313 C 190.666672 411.733337 195.199997 416.533325 204.53334 421.466675 C 208 423.333313 209.199997 424.666687 208.266663 425.600006 C 206.133331 427.733337 198.800003 424.666687 191.733337 418.533325 C 186.666672 414.266663 184.800003 411.466675 182.399994 404.266663 L 179.333328 395.333313 L 178.933334 269.333344 C 178.800003 200.133331 178.933334 142.666656 179.199997 141.733337 C 179.600006 140.799988 180.800003 140 181.866669 140 C 183.733337 140 184 154.799988 184.266663 267.600006 Z M 173.333328 272.133331 C 174 394.533325 174 396.799988 176.800003 404.93335 C 180.53334 415.866669 184 420.399994 193.333328 426.533325 L 201.066666 431.733337 L 209.46666 428.133331 C 218.53334 424.266663 229.066666 418.266663 270.799988 393.200012 C 301.066681 375.06665 358.666656 341.866669 365.066681 338.799988 L 369.333344 336.799988 L 369.333344 265.066681 C 369.333344 204.933319 369.600006 193.333344 371.200012 193.333344 C 372.133331 193.333344 373.333344 194.666656 373.866669 196.266663 C 374.266663 198 374.666656 231.333344 374.666656 270.266663 C 374.666656 337.333344 374.533325 341.333344 372.266663 341.333344 C 371.066681 341.333344 365.733337 343.733337 360.666656 346.799988 C 355.466675 349.866669 340.799988 358.266663 328 365.600006 C 315.200012 372.93335 286.266663 390.133331 263.600006 403.600006 C 241.066666 417.06665 217.333328 430.533325 210.933334 433.466675 C 204.53334 436.399994 196.933334 439.866669 194 441.333313 C 189.600006 443.466675 187.199997 443.733337 180 442.93335 C 165.600006 441.333313 158.933334 434.133331 151.866669 412.666687 L 148.666672 403.333313 L 148.266663 282.933319 C 147.866669 162.799988 147.866669 162.666656 150.666672 162.666656 C 153.333328 162.666656 153.333328 162.933319 153.333328 279.200012 C 153.333328 345.600006 153.866669 398.399994 154.53334 402.133331 C 157.066666 415.333313 161.333328 424.399994 168.666672 431.600006 C 174.399994 437.466675 176.399994 438.666687 180.133331 438.533325 C 184.266663 438.533325 184.399994 438.399994 182.133331 436.93335 C 177.066666 433.733337 167.733337 424.799988 165.866669 420.93335 C 164.800003 418.93335 162.666672 412.666687 161.333328 407.06665 C 158.800003 397.600006 158.666672 391.06665 158.666672 276.399994 C 158.666672 210 158.933334 155.333344 159.199997 154.933319 C 159.600006 154.533325 160.800003 155.066681 162 156 C 163.866669 157.466675 164 170.799988 163.866669 277.866669 L 163.733337 398 L 167.199997 408.533325 C 170.933334 419.466675 174.666672 425.06665 181.866669 430.399994 C 184.133331 432 186.266663 434.399994 186.666672 435.733337 C 187.333328 437.866669 187.866669 437.733337 193.333328 435.06665 C 198.666672 432.399994 198.933334 432.133331 195.733337 432 C 190.933334 432 181.46666 424.533325 177.066666 417.333313 C 168.933334 404 169.066666 407.333313 169.199997 271.333344 C 169.333328 203.066681 169.333328 147.066681 169.333328 146.933319 C 169.333328 146.666656 170.133331 146.666656 171.066666 146.933319 C 172.266663 147.466675 172.800003 174.133331 173.333328 272.133331 Z M 404 159.600006 C 404 160.266663 399.333344 161.733337 393.733337 163.200012 C 388 164.533325 380.399994 167.200012 376.666656 168.933319 C 368.666656 173.066681 330.266663 195.333344 295.333344 216 C 281.333344 224.266663 262.799988 235.333344 254 240.399994 C 245.199997 245.600006 235.733337 251.200012 233.066666 252.933319 L 228 256 L 228 252.933319 C 228 250.266663 236.266663 245.066681 288.399994 214.399994 C 366 168.666656 374.399994 164 384.399994 161.200012 C 392.933319 158.799988 404 157.866669 404 159.600006 Z M 142.800003 286.799988 C 143.600006 410.399994 143.333328 407.333313 150.666672 423.600006 C 157.46666 438.533325 165.733337 446.399994 172.933334 444.533325 C 174.399994 444.133331 179.066666 445.06665 183.46666 446.533325 C 198.53334 451.600006 203.066666 451.466675 218.666672 445.600006 C 231.600006 440.799988 253.333328 428.799988 314 393.06665 C 348.266663 372.93335 366.266663 362.799988 369.733337 361.466675 C 372.933319 360.133331 373.333344 360.399994 373.333344 363.06665 C 373.333344 365.466675 371.466675 367.06665 364.399994 370.533325 C 359.466675 372.93335 329.333344 390.133331 297.333344 408.666687 C 231.333328 446.93335 230.666672 447.333313 218 451.600006 L 208.666672 454.666687 L 217.333328 453.866669 C 228.933334 452.93335 238.666672 448.799988 263.600006 434.399994 C 313.733337 405.600006 344.933319 387.466675 349.466675 384.666687 C 352.133331 382.93335 358.533325 379.466675 363.866669 376.666687 L 373.466675 371.866669 L 373.066681 375.600006 C 372.799988 378 371.733337 379.466675 370 379.866669 C 367.066681 380.399994 352 388.93335 266.666656 438.666687 C 247.46666 449.866669 241.333328 453.06665 232.133331 456.133331 C 223.46666 459.200012 209.199997 459.466675 201.600006 456.799988 C 198.666672 455.733337 193.333328 454.399994 189.866669 453.866669 C 186.266663 453.333313 181.066666 451.866669 178 450.533325 C 172.133331 447.866669 169.333328 447.333313 169.333328 449.06665 C 169.333328 450.93335 191.600006 465.466675 198.399994 468 C 209.600006 472.266663 219.46666 472.666656 234.800003 469.466675 C 250.933334 466 257.066681 463.06665 296.666656 440 C 348.133331 409.866669 356.666656 405.06665 365.066681 400.399994 L 373.333344 395.733337 L 373.333344 399.733337 C 373.333344 402.93335 372.666656 403.866669 369.733337 404.666687 C 367.600006 405.06665 356.666656 410.93335 345.333344 417.600006 C 334 424.266663 318.933319 433.06665 312 437.06665 C 305.066681 441.06665 292.933319 448.133331 285.200012 452.799988 C 265.066681 464.799988 252.933334 470.266663 240.666672 472.93335 C 228.399994 475.466675 225.066666 477.333344 232.666672 477.333344 C 241.733337 477.333344 254.666672 474.666656 262.799988 471.333313 C 267.066681 469.466675 292.133331 455.466675 318.533325 440 C 344.933319 424.666687 367.066681 412 367.733337 412 C 368.399994 412 369.733337 411.06665 370.666656 410 C 371.600006 408.93335 372.799988 408.399994 373.600006 408.799988 C 374.799988 409.600006 374.933319 479.06665 373.733337 491.733337 C 373.333344 496.133331 372.399994 498.533325 371.466675 498.266663 C 370.399994 497.866669 369.866669 485.600006 369.333344 457.06665 L 368.666656 416.266663 L 339.333344 433.600006 C 323.200012 443.200012 302.933319 455.200012 294.266663 460.266663 C 256.799988 482.399994 245.733337 484.799988 215.333328 478 C 193.600006 473.200012 178.399994 464.93335 163.199997 450 C 151.199997 438.133331 146.133331 429.200012 141.066666 411.06665 C 138.133331 400.799988 138.133331 399.200012 137.600006 287.466675 C 137.46666 225.200012 137.600006 173.333344 138 172.399994 C 138.399994 171.333344 139.46666 170.666656 140.399994 170.933319 C 141.600006 171.466675 142.133331 196.399994 142.800003 286.799988 Z M 415.733337 172.533325 C 424.399994 177.066681 430.933319 188.133331 433.466675 202.399994 C 435.200012 211.333344 436.266663 454.799988 434.666656 457.333313 C 430.933319 463.333313 430.666656 454.666687 430.666656 336.266663 C 430.666656 268.933319 430.133331 212 429.466675 207.866669 C 426.399994 189.066681 422.666656 182.533325 412.266663 176.933319 C 408.399994 174.799988 405.333344 172.666656 405.333344 171.866669 C 405.333344 170 411.600006 170.399994 415.733337 172.533325 Z M 406.799988 180.399994 C 409.733337 182.799988 410.799988 185.466675 412.533325 195.333344 C 414.399994 205.866669 414.666656 225.066681 414.666656 339.333344 C 414.799988 457.333313 414.533325 471.333313 412.666656 471.733337 C 410.933319 472.133331 410.666656 458.93335 410.666656 344.399994 C 410.666656 193.600006 410.399994 189.733337 400.266663 181.466675 L 395.333344 177.466675 L 399.333344 177.333344 C 401.600006 177.333344 404.933319 178.666656 406.799988 180.399994 Z M 395.733337 184.399994 C 397.200012 186 399.866669 190.399994 401.600006 194 L 404.666656 200.666656 L 404.666656 340 C 404.666656 471.600006 404.533325 479.333344 402.399994 479.733337 C 400.133331 480.133331 400 472.93335 400 342.266663 C 400 192.933319 400.133331 197.066681 392.799988 187.333344 C 390.933319 184.933319 389.333344 182.533325 389.333344 182.133331 C 389.333344 180.266663 393.066681 181.600006 395.733337 184.399994 Z M 388.533325 188.933319 C 390.399994 191.733337 392.533325 197.066681 393.333344 200.933319 C 394.399994 205.733337 394.666656 249.200012 394.399994 347.600006 C 394 478.93335 393.866669 487.333344 391.733337 487.733337 C 389.466675 488.133331 389.333344 480 389.066681 342.933319 L 388.666656 197.733337 L 385.066681 192.533325 C 382.933319 189.600006 381.333344 186.533325 381.333344 185.600006 C 381.333344 182.266663 385.466675 184.133331 388.533325 188.933319 Z M 419.333344 190.933319 C 421.066681 194.799988 423.200012 201.866669 423.866669 206.666656 C 425.866669 218.533325 425.866669 462.666687 424 464.533325 C 423.200012 465.333313 422.266663 465.466675 421.333344 464.533325 C 420.533325 463.733337 420 414.93335 419.733337 332.666656 C 419.333344 216.666656 419.066681 201.466675 417.200012 196.666656 C 411.866669 183.333344 413.600006 178.533325 419.333344 190.933319 Z M 368.399994 192.666656 C 366.799988 193.733337 365.466675 195.733337 365.600006 197.066681 C 365.600006 198.266663 365.466675 229.466675 365.466675 266.266663 L 365.200012 333.333344 L 359.600006 336.133331 C 356.533325 337.733337 352.266663 340.266663 350 341.866669 C 347.866669 343.466675 342.666656 346.533325 338.666656 348.533325 C 334.666656 350.666687 330.666656 352.799988 329.866669 353.466675 C 328.933319 354.133331 325.733337 356.133331 322.533325 357.733337 C 314.799988 361.866669 312.399994 363.200012 273.333344 386.533325 C 237.066666 408.399994 229.333328 412.666687 229.199997 411.06665 C 229.066666 409.866669 229.199997 276.399994 229.199997 273.733337 C 229.333328 272.799988 231.600006 270.933319 234.399994 269.600006 C 240.266663 266.666656 280.666656 243.200012 303.333344 229.333344 C 320.533325 218.933319 341.466675 206.666656 342.133331 206.666656 C 342.266663 206.666656 347.466675 203.600006 353.600006 200 C 359.733337 196.266663 365.600006 192.666656 366.666656 192 C 370 190 371.466675 190.533325 368.399994 192.666656 Z M 382.533325 195.600006 C 384 200.666656 384.799988 493.06665 383.466675 494.399994 C 383.066681 494.666656 381.733337 494.666656 380.533325 494.133331 C 378.533325 493.333344 378.399994 481.200012 378.933319 342 C 379.066681 258.799988 379.733337 190.666656 380.266663 190.666656 C 380.799988 190.666656 381.866669 192.933319 382.533325 195.600006 Z M 373.600006 349.200012 C 373.200012 352.266663 371.600006 353.866669 366.266663 356.799988 C 357.200012 361.600006 334.799988 374.533325 278.266663 407.733337 C 224.399994 439.200012 209.333328 446.799988 199.066666 447.06665 C 195.199997 447.200012 192 446.799988 192 446 C 191.866669 445.333313 195.600006 443.733337 200.266663 442.533325 C 211.866669 439.600006 223.46666 434 247.866669 419.466675 C 268.133331 407.333313 310.533325 382.533325 325.333344 374 C 329.333344 371.600006 340.799988 365.06665 350.666656 359.333313 C 360.533325 353.733337 369.600006 348.266663 370.666656 347.200012 C 373.466675 344.399994 374.266663 344.93335 373.600006 349.200012 Z M 373.333344 387.06665 C 373.333344 389.333313 371.866669 390.799988 367.066681 393.200012 C 361.066681 396.133331 309.333344 425.866669 279.333344 443.733337 C 256.933319 457.06665 245.733337 462.399994 233.333328 465.466675 C 223.46666 468 220.933334 468.133331 212 466.93335 C 195.600006 464.533325 182.266663 458.533325 185.733337 455.06665 C 186.266663 454.666687 190.666672 456 195.600006 458.133331 C 203.46666 461.333313 206.53334 461.866669 218 461.866669 C 237.46666 462 239.866669 460.93335 302 424.666687 C 364.799988 388 371.333344 384.266663 372.399994 384.133331 C 372.933319 384 373.333344 385.333313 373.333344 387.06665 Z"/>
        <path id="path1" fill="#ffffff" stroke="none" d="M 286.666656 249.866669 C 270.799988 254.399994 259.733337 263.600006 253.199997 277.600006 C 249.066666 286.533325 248.666672 288.266663 248.800003 300 C 248.800003 313.866669 250.800003 319.866669 258.666656 331.466675 C 267.200012 343.866669 285.066681 353.333313 299.866669 353.333313 C 319.866669 353.333313 341.466675 336.533325 347.333344 316.666656 C 351.066681 303.866669 349.333344 286.399994 343.333344 274.666656 C 339.066681 266.399994 326.799988 255.333344 318.266663 252.266663 C 308.533325 248.533325 294.533325 247.466675 286.666656 249.866669 Z M 315.200012 256.133331 C 336.799988 264.133331 349.866669 290.533325 343.333344 312.799988 C 332.933319 348.799988 293.333344 360.266663 268 334.799988 C 257.333344 324.133331 254.266663 316.933319 253.600006 301.733337 C 253.066666 290.133331 253.199997 288.933319 257.200012 280.399994 C 262 270.266663 264.799988 266.799988 272.666656 261.333344 C 284.666656 253.066681 301.600006 250.933319 315.200012 256.133331 Z"/>
        <path id="path2" fill="#ffffff" stroke="none" d="M 290.933319 260.133331 C 276.133331 263.066681 264.533325 274.399994 260.533325 290.133331 C 250.53334 328.266663 295.066681 358.399994 323.600006 332.799988 C 332.666656 324.666656 337.333344 315.600006 338.266663 304.266663 C 340 283.066681 328.266663 265.866669 308.533325 260.666656 C 300 258.533325 299.333344 258.399994 290.933319 260.133331 Z M 313.600006 267.200012 C 333.733337 276.933319 340 304.799988 326.266663 322.933319 C 310.399994 343.733337 281.333344 341.466675 268.533325 318.399994 C 265.200012 312.266663 264.666656 310 264.666656 300.666656 C 264.666656 291.600006 265.200012 288.933319 268.533325 282.799988 C 270.533325 278.799988 272.933319 274.933319 273.733337 274 C 276.399994 271.600006 285.200012 266.533325 289.066681 265.200012 C 294.533325 263.466675 308.133331 264.533325 313.600006 267.200012 Z"/>
        <path id="path3" fill="#ffffff" stroke="none" d="M 281.600006 275.733337 C 278.666656 278.666656 277.066681 294.799988 278.133331 311.333344 C 278.666656 319.733337 279.466675 322.666656 281.600006 324.933319 C 283.200012 326.666656 285.333344 328 286.399994 328 C 288.799988 328 317.600006 311.333344 322.799988 306.933319 C 331.066681 300 327.200012 294.533325 305.333344 282.133331 C 289.066681 272.799988 285.466675 271.866669 281.600006 275.733337 Z M 303.333344 286.666656 C 319.733337 296 323.333344 298.799988 322.399994 301.200012 C 321.600006 303.600006 286.399994 324.133331 284.533325 323.466675 C 283.066681 322.933319 282.666656 318.133331 282.666656 300.933319 C 282.666656 288.933319 283.066681 278.666656 283.600006 278.266663 C 285.200012 276.533325 287.066681 277.333344 303.333344 286.666656 Z"/>
        <path id="path4" fill="#ffffff" stroke="none" d="M 289.333344 300.266663 C 289.333344 308.266663 289.733337 314.666656 290.399994 314.399994 C 293.466675 313.066681 313.333344 300.533325 313.333344 300 C 313.200012 299.600006 307.866669 296.266663 301.333344 292.399994 L 289.333344 285.466675 L 289.333344 300.266663 Z M 302.666656 300 C 302.666656 301.200012 297.466675 305.333344 295.866669 305.333344 C 294.533325 305.333344 293.466675 300.266663 294.266663 297.333344 C 294.933319 294.933319 295.200012 294.933319 298.799988 296.799988 C 300.933319 297.866669 302.666656 299.333344 302.666656 300 Z"/>
    </g>
</svg>
